<?xml version="1.0" encoding="utf-8"?>
<svg id="master-artboard" viewBox="0 0 1400 980" version="1.1" xmlns="http://www.w3.org/2000/svg" x="0px" y="0px" width="1400px" height="980px" enable-background="new 0 0 1400 980">
<g transform="matrix(1, 0, 0, 1, 0, 1.4210854715202004e-14)">
		<g>
			<path d="M 0 0 H 1400 V 980 H 0 V 0 Z" fill="#FFFFFF"/>
		</g>
	</g><g transform="matrix(1, 0, 0, 1, 5.684341886080802e-14, 1.4210854715202004e-14)">
			<path fill="#FFFFFF" d="M95.8,345.5v354.4c0,7.8,6.3,14.1,14.1,14.1h523.7c7.8,0,14.1-6.3,14.1-14.1V345.5H95.8z"/>
			<path d="M633.6,715.8H109.9c-8.8,0-15.9-7.1-15.9-15.9V345.5c0-1,0.8-1.9,1.9-1.9h551.9c1,0,1.9,0.8,1.9,1.9v354.4&#10;&#9;&#9;&#9;&#9;C649.5,708.7,642.4,715.8,633.6,715.8z M97.7,347.3v352.6c0,6.7,5.5,12.2,12.2,12.2h523.7c6.7,0,12.2-5.5,12.2-12.2V347.3H97.7z"/>
		</g><path fill="#FFFFFF" d="M517.5,417.4l-16.8,3c-6.1-10.8-15.5-19.7-27-25.3l1.9-17c-3.6-1.4-7.4-2.6-11.3-3.6&#10;&#9;&#9;&#9;&#9;c-3.9-0.9-7.8-1.5-11.7-1.8l-5.8,16c-12.9-0.1-25.2,3.8-35.5,10.8l-13.7-10.1c-6.2,4.9-11.7,10.7-16.2,17.3l11,13&#10;&#9;&#9;&#9;&#9;c-3.1,5.3-5.5,11.1-6.9,17.4c-1.5,6.3-1.9,12.6-1.5,18.7l-15.6,6.8c1.2,7.9,3.5,15.6,6.9,22.7l16.8-3c6.1,10.8,15.5,19.7,27,25.3&#10;&#9;&#9;&#9;&#9;l-1.9,16.9c3.6,1.4,7.4,2.6,11.3,3.6c3.9,0.9,7.8,1.5,11.7,1.8l5.8-16c12.9,0.1,25.2-3.8,35.5-10.8l13.7,10.1&#10;&#9;&#9;&#9;&#9;c6.2-4.9,11.7-10.7,16.2-17.3l-11-13c3.1-5.3,5.5-11.1,6.9-17.4c1.5-6.3,1.9-12.6,1.5-18.7l15.6-6.8&#10;&#9;&#9;&#9;&#9;C523.2,432.2,520.9,424.5,517.5,417.4z M484.8,460.4c-5,21.3-26.2,34.5-47.5,29.5c-21.3-5-34.5-26.2-29.5-47.5&#10;&#9;&#9;&#9;&#9;c5-21.3,26.2-34.5,47.5-29.5C476.6,417.9,489.8,439.1,484.8,460.4z" transform="matrix(1, 0, 0, 1, 8.526512829121202e-14, 2.1316282072803006e-14)"/><path d="M440.1,531.9c0,0-0.1,0-0.1,0c-4.1-0.3-8.1-1-12-1.9c-3.9-0.9-7.8-2.1-11.6-3.6c-0.8-0.3-1.3-1.1-1.2-1.9l1.7-15.7&#10;&#9;&#9;&#9;&#9;c-10.8-5.5-19.8-13.9-26-24.4l-15.5,2.8c-0.8,0.1-1.6-0.3-2-1c-3.5-7.4-5.9-15.2-7-23.2c-0.1-0.8,0.3-1.6,1.1-2l14.4-6.3&#10;&#9;&#9;&#9;&#9;c-0.3-6,0.2-12,1.6-17.9c1.4-5.9,3.6-11.5,6.5-16.8l-10.1-12c-0.5-0.6-0.6-1.6-0.1-2.2c4.6-6.7,10.2-12.6,16.6-17.7&#10;&#9;&#9;&#9;&#9;c0.7-0.5,1.6-0.5,2.3,0l12.7,9.3c10.2-6.6,22-10.2,34.1-10.4l5.4-14.8c0.3-0.8,1-1.3,1.9-1.2c4,0.3,8.1,0.9,12,1.9&#10;&#9;&#9;&#9;&#9;c3.9,0.9,7.8,2.1,11.6,3.6c0.8,0.3,1.3,1.1,1.2,1.9l-1.7,15.7c10.8,5.5,19.8,13.9,26,24.4l15.5-2.8c0.8-0.1,1.6,0.3,2,1&#10;&#9;&#9;&#9;&#9;c3.5,7.3,5.9,15.1,7.1,23.2c0.1,0.8-0.3,1.6-1.1,2l-14.4,6.3c0.3,6-0.2,12-1.6,17.9c-1.4,5.9-3.6,11.5-6.5,16.8l10.1,12&#10;&#9;&#9;&#9;&#9;c0.5,0.6,0.6,1.6,0.1,2.2c-4.6,6.7-10.2,12.7-16.6,17.7c-0.7,0.5-1.6,0.5-2.3,0l-12.7-9.3c-10.2,6.6-22,10.2-34.1,10.4l-5.4,14.8&#10;&#9;&#9;&#9;&#9;C441.6,531.4,440.9,531.9,440.1,531.9z M419.1,523.4c3.2,1.2,6.5,2.2,9.7,3c3.3,0.8,6.7,1.3,10.1,1.7l5.3-14.7&#10;&#9;&#9;&#9;&#9;c0.3-0.7,1-1.2,1.7-1.2c0,0,0,0,0,0h0.4c12.1,0,23.9-3.6,34-10.4c0.6-0.4,1.5-0.4,2.1,0l12.6,9.3c5.3-4.3,10-9.3,13.9-14.8&#10;&#9;&#9;&#9;&#9;l-10.1-11.9c-0.5-0.6-0.6-1.5-0.2-2.1c3.1-5.3,5.3-10.9,6.7-16.9c1.4-6,1.9-12.1,1.4-18.1c-0.1-0.8,0.4-1.5,1.1-1.8l14.3-6.3&#10;&#9;&#9;&#9;&#9;c-1.1-6.7-3.1-13.3-5.9-19.5l-15.4,2.7c-0.8,0.1-1.6-0.2-1.9-0.9c-6.1-10.7-15.2-19.2-26.2-24.6c-0.7-0.3-1.1-1.1-1-1.9l1.7-15.5&#10;&#9;&#9;&#9;&#9;c-3.2-1.2-6.5-2.2-9.8-3s-6.7-1.3-10.1-1.7l-5.3,14.7c-0.3,0.7-1,1.2-1.7,1.2c0,0,0,0,0,0h-0.4c-12.1,0-23.9,3.6-34,10.4&#10;&#9;&#9;&#9;&#9;c-0.7,0.4-1.5,0.4-2.1,0l-12.6-9.3c-5.3,4.3-10,9.3-13.9,14.8l10,11.9c0.5,0.6,0.6,1.5,0.2,2.1c-3.1,5.3-5.3,11-6.7,16.9&#10;&#9;&#9;&#9;&#9;c-1.4,6-1.9,12.1-1.5,18.1c0.1,0.8-0.4,1.5-1.1,1.8l-14.3,6.3c1.1,6.7,3.1,13.3,5.9,19.5l15.4-2.7c0.8-0.1,1.6,0.2,1.9,0.9&#10;&#9;&#9;&#9;&#9;c6.1,10.7,15.2,19.2,26.2,24.6c0.7,0.3,1.1,1.1,1,1.9L419.1,523.4z M446.4,492.8c-3.2,0-6.3-0.4-9.4-1.1&#10;&#9;&#9;&#9;&#9;c-22.2-5.2-36.1-27.5-30.9-49.7c4.4-18.8,20.9-32,40.3-32c3.2,0,6.3,0.4,9.4,1.1c22.2,5.2,36.1,27.5,30.9,49.7&#10;&#9;&#9;&#9;&#9;C482.2,479.6,465.7,492.8,446.4,492.8z M446.3,413.7c-17.6,0-32.6,12-36.6,29.1c-4.7,20.2,7.9,40.5,28.1,45.2&#10;&#9;&#9;&#9;&#9;c2.8,0.7,5.7,1,8.6,1c17.6,0,32.6-12,36.6-29.1c4.7-20.2-7.9-40.5-28.1-45.2C452.1,414,449.2,413.7,446.3,413.7z" transform="matrix(1, 0, 0, 1, 8.526512829121202e-14, 2.1316282072803006e-14)"/><path fill="#FFFFFF" d="M647.7,296.2c0-7.8-6.3-14.1-14.1-14.1H109.9c-7.8,0-14.1,6.3-14.1,14.1v49.2h551.9V296.2z" transform="matrix(1, 0, 0, 1, 8.526512829121202e-14, 2.1316282072803006e-14)"/><path d="M647.7,347.3H95.8c-1,0-1.9-0.8-1.9-1.9v-49.2c0-8.8,7.1-15.9,15.9-15.9h523.7c8.8,0,15.9,7.1,15.9,15.9v49.2&#10;&#9;&#9;&#9;&#9;C649.5,346.5,648.7,347.3,647.7,347.3z M97.7,343.6h548.1v-47.4c0-6.7-5.5-12.2-12.2-12.2H109.9c-6.7,0-12.2,5.5-12.2,12.2V343.6&#10;&#9;&#9;&#9;&#9;z" transform="matrix(1, 0, 0, 1, 8.526512829121202e-14, 2.1316282072803006e-14)"/><path d="M 113.099998 303.600006 H 133.499998 V 324.000006 H 113.099998 V 303.600006 Z" fill="#FFFFFF" transform="matrix(1, 0, 0, 1, 8.526512829121202e-14, 2.1316282072803006e-14)"/><path d="M133.5,325.9h-20.4c-1,0-1.9-0.8-1.9-1.9v-20.4c0-1,0.8-1.9,1.9-1.9h20.4c1,0,1.9,0.8,1.9,1.9V324&#10;&#9;&#9;&#9;&#9;C135.4,325,134.6,325.9,133.5,325.9z M115,322.2h16.7v-16.7H115V322.2z" transform="matrix(1, 0, 0, 1, 8.526512829121202e-14, 2.1316282072803006e-14)"/><path d="M 155.699997 303.600006 H 176.099997 V 324.000006 H 155.699997 V 303.600006 Z" fill="#FFFFFF" transform="matrix(1, 0, 0, 1, 8.526512829121202e-14, 2.1316282072803006e-14)"/><path d="M176.1,325.9h-20.4c-1,0-1.9-0.8-1.9-1.9v-20.4c0-1,0.8-1.9,1.9-1.9h20.4c1,0,1.9,0.8,1.9,1.9V324&#10;&#9;&#9;&#9;&#9;C177.9,325,177.1,325.9,176.1,325.9z M157.5,322.2h16.7v-16.7h-16.7V322.2z" transform="matrix(1, 0, 0, 1, 8.526512829121202e-14, 2.1316282072803006e-14)"/><path d="M 198.199997 303.600006 H 218.599997 V 324.000006 H 198.199997 V 303.600006 Z" fill="#FFFFFF" transform="matrix(1, 0, 0, 1, 8.526512829121202e-14, 2.1316282072803006e-14)"/><path d="M218.6,325.9h-20.4c-1,0-1.9-0.8-1.9-1.9v-20.4c0-1,0.8-1.9,1.9-1.9h20.4c1,0,1.9,0.8,1.9,1.9V324&#10;&#9;&#9;&#9;&#9;C220.5,325,219.7,325.9,218.6,325.9z M200.1,322.2h16.7v-16.7h-16.7V322.2z" transform="matrix(1, 0, 0, 1, 8.526512829121202e-14, 2.1316282072803006e-14)"/><path fill="#FFFFFF" d="M424.9,766.9V553.6c23.6-12.1,39.7-36.6,39.7-65c0-26.6-14.2-49.8-35.4-62.6v57.1c0,18.8-15.2,34-34,34&#10;&#9;&#9;&#9;&#9;h-7.1c-18.8,0-34-15.2-34-34V426c-21.2,12.8-35.4,36-35.4,62.6c0,28.3,16.1,52.8,39.7,65v214.1c-23.2,12.2-39,36.6-39,64.6&#10;&#9;&#9;&#9;&#9;c0,26.6,14.2,49.8,35.4,62.6v-57.1c0-18.8,15.2-34,34-34h7.1c18.8,0,34,15.2,34,34v57.1c21.2-12.8,35.4-36,35.4-62.6&#10;&#9;&#9;&#9;&#9;C465.3,803.7,448.9,778.9,424.9,766.9z" transform="matrix(1, 0, 0, 1, 8.526512829121202e-14, 2.1316282072803006e-14)"/><path d="M429.9,896.7c-0.3,0-0.6-0.1-0.9-0.2c-0.6-0.3-0.9-0.9-0.9-1.6v-57.1c0-17.7-14.4-32.2-32.2-32.2h-7.1&#10;&#9;&#9;&#9;&#9;c-17.7,0-32.2,14.4-32.2,32.2v57.1c0,0.7-0.4,1.3-0.9,1.6c-0.6,0.3-1.3,0.3-1.9,0c-22.8-13.7-36.3-37.7-36.3-64.2&#10;&#9;&#9;&#9;&#9;c0-27.5,14.9-52.5,39-65.7V554.7c-24.5-13.1-39.7-38.3-39.7-66.1c0-26.1,13.9-50.7,36.3-64.2c0.6-0.3,1.3-0.4,1.9,0&#10;&#9;&#9;&#9;&#9;c0.6,0.3,0.9,0.9,0.9,1.6v57.1c0,17.7,14.4,32.2,32.2,32.2h7.1c17.7,0,32.2-14.4,32.2-32.2V426c0-0.7,0.4-1.3,0.9-1.6&#10;&#9;&#9;&#9;&#9;c0.6-0.3,1.3-0.3,1.9,0c22.8,13.7,36.3,37.7,36.3,64.2c0,27.8-15.2,53-39.7,66.1v211.1c25,13,40.4,38.3,40.4,66.5&#10;&#9;&#9;&#9;&#9;c0,26.5-13.6,50.5-36.3,64.2C430.6,896.6,430.2,896.7,429.9,896.7z M352.2,429.4c-19.9,13.2-31.7,35.1-31.7,59.2&#10;&#9;&#9;&#9;&#9;c0,26.8,14.8,51,38.7,63.3c0.6,0.3,1,1,1,1.6v214.1c0,0.7-0.4,1.3-1,1.6c-23.4,12.4-38,36.5-38,62.9c0,24.1,11.8,46,31.7,59.2&#10;&#9;&#9;&#9;&#9;v-53.8c0-19.8,16.1-35.9,35.9-35.9h7.1c19.8,0,35.9,16.1,35.9,35.9v53.8c19.9-13.3,31.7-35.2,31.7-59.2&#10;&#9;&#9;&#9;&#9;c0-27.1-15.1-51.5-39.4-63.7c-0.6-0.3-1-1-1-1.7V553.6c0-0.7,0.4-1.3,1-1.6c23.9-12.3,38.7-36.5,38.7-63.3&#10;&#9;&#9;&#9;&#9;c0-24.1-11.8-46-31.7-59.2v53.8c0,19.8-16.1,35.9-35.9,35.9h-7.1c-19.8,0-35.9-16.1-35.9-35.9V429.4z" transform="matrix(1, 0, 0, 1, 8.526512829121202e-14, 2.1316282072803006e-14)"/><g transform="matrix(1, 0, 0, 1, 8.526512829121202e-14, 2.1316282072803006e-14)">
				<path d="M 543.7999877929688 842.0999755859375 L 557.5999755859375 894.9000244140625 L 586.7999877929688 894.9000244140625 L 600.5999755859375 842.0999755859375 Z" fill="#FFFFFF"/>
				<path d="M586.8,896.7h-29.2c-0.8,0-1.6-0.6-1.8-1.4L542,842.6c-0.1-0.6,0-1.1,0.3-1.6c0.4-0.5,0.9-0.7,1.5-0.7h56.8&#10;&#9;&#9;&#9;&#9;&#9;c0.6,0,1.1,0.3,1.5,0.7c0.4,0.5,0.5,1,0.3,1.6l-13.8,52.8C588.4,896.1,587.6,896.7,586.8,896.7z M559,893h26.3l12.8-49.1h-52&#10;&#9;&#9;&#9;&#9;&#9;L559,893z"/>
			</g><path fill="#FFFFFF" d="M538.1,454v152.7c10.7,3.8,18.3,14,18.3,26s-7.7,22.2-18.3,26v16.9h68.2v-16.9&#10;&#9;&#9;&#9;&#9;&#9;c-10.7-3.8-18.3-14-18.3-26c0-12,7.7-22.2,18.3-26V454c0-18.8-15.3-34.1-34.1-34.1C553.4,419.9,538.1,435.1,538.1,454z" transform="matrix(1, 0, 0, 1, 1.1368683772161603e-13, 2.842170943040401e-14)"/><path d="M606.3,677.4h-68.2c-1,0-1.9-0.8-1.9-1.9v-16.9c0-0.8,0.5-1.5,1.2-1.7c10.2-3.7,17.1-13.4,17.1-24.3&#10;&#9;&#9;&#9;&#9;&#9;c0-10.8-6.9-20.6-17.1-24.3c-0.7-0.3-1.2-1-1.2-1.7V454c0-19.8,16.1-36,36-36c19.8,0,36,16.1,36,36v152.7c0,0.8-0.5,1.5-1.2,1.7&#10;&#9;&#9;&#9;&#9;&#9;c-10.2,3.7-17.1,13.4-17.1,24.3c0,10.8,6.9,20.6,17.1,24.3c0.7,0.3,1.2,1,1.2,1.7v16.9C608.2,676.6,607.3,677.4,606.3,677.4z&#10;&#9;&#9;&#9;&#9;&#9; M539.9,673.7h64.5V660c-11-4.5-18.3-15.3-18.3-27.3c0-12,7.3-22.8,18.3-27.3V454c0-17.8-14.5-32.3-32.3-32.3&#10;&#9;&#9;&#9;&#9;&#9;c-17.8,0-32.3,14.5-32.3,32.3v151.4c11,4.5,18.3,15.3,18.3,27.3c0,12-7.3,22.8-18.3,27.3V673.7z" transform="matrix(1, 0, 0, 1, 1.1368683772161603e-13, 2.842170943040401e-14)"/><path d="M 560.400024 451.399994 L 560.400024 597.5" fill="#FFFFFF" transform="matrix(1, 0, 0, 1, 1.1368683772161603e-13, 2.842170943040401e-14)"/><path d="M560.4,599.4c-1,0-1.9-0.8-1.9-1.9V451.4c0-1,0.8-1.9,1.9-1.9c1,0,1.9,0.8,1.9,1.9v146.1&#10;&#9;&#9;&#9;&#9;&#9;C562.2,598.6,561.4,599.4,560.4,599.4z" transform="matrix(1, 0, 0, 1, 1.1368683772161603e-13, 2.842170943040401e-14)"/><path d="M 584 451.399994 L 584 597.5" fill="#FFFFFF" transform="matrix(1, 0, 0, 1, 1.1368683772161603e-13, 2.842170943040401e-14)"/><path d="M584,599.4c-1,0-1.9-0.8-1.9-1.9V451.4c0-1,0.8-1.9,1.9-1.9c1,0,1.9,0.8,1.9,1.9v146.1C585.9,598.6,585,599.4,584,599.4&#10;&#9;&#9;&#9;&#9;&#9;z" transform="matrix(1, 0, 0, 1, 1.1368683772161603e-13, 2.842170943040401e-14)"/><path d="M 572.200012 842.099976 L 572.200012 675.599976" fill="#FFFFFF" transform="matrix(1, 0, 0, 1, 1.1368683772161603e-13, 2.842170943040401e-14)"/><path d="M572.2,843.9c-1,0-1.9-0.8-1.9-1.9V675.6c0-1,0.8-1.9,1.9-1.9c1,0,1.9,0.8,1.9,1.9v166.5&#10;&#9;&#9;&#9;&#9;&#9;C574.1,843.1,573.2,843.9,572.2,843.9z" transform="matrix(1, 0, 0, 1, 1.1368683772161603e-13, 2.842170943040401e-14)"/><path d="M 404.5 584.5 L 404.5 736.400024" fill="#FFFFFF" transform="matrix(1, 0, 0, 1, 8.526512829121202e-14, 2.1316282072803006e-14)"/><path d="M404.5,738.3c-1,0-1.9-0.8-1.9-1.9V584.5c0-1,0.8-1.9,1.9-1.9s1.9,0.8,1.9,1.9v151.9&#10;&#9;&#9;&#9;&#9;C406.3,737.4,405.5,738.3,404.5,738.3z" transform="matrix(1, 0, 0, 1, 8.526512829121202e-14, 2.1316282072803006e-14)"/><path d="M 379.399994 584.5 L 379.399994 736.400024" fill="#FFFFFF" transform="matrix(1, 0, 0, 1, 8.526512829121202e-14, 2.1316282072803006e-14)"/><path d="M379.4,738.3c-1,0-1.9-0.8-1.9-1.9V584.5c0-1,0.8-1.9,1.9-1.9c1,0,1.9,0.8,1.9,1.9v151.9&#10;&#9;&#9;&#9;&#9;C381.3,737.4,380.5,738.3,379.4,738.3z" transform="matrix(1, 0, 0, 1, 8.526512829121202e-14, 2.1316282072803006e-14)"/><path d="M 137.300003 398.5 H 263.300003 V 524.5 H 137.300003 V 398.5 Z" fill="#FFFFFF" transform="matrix(1, 0, 0, 1, 8.526512829121202e-14, 2.1316282072803006e-14)"/><path d="M263.2,526.3h-126c-1,0-1.9-0.8-1.9-1.9v-126c0-1,0.8-1.9,1.9-1.9h126c1,0,1.9,0.8,1.9,1.9v126&#10;&#9;&#9;&#9;&#9;C265.1,525.5,264.3,526.3,263.2,526.3z M139.1,522.6h122.3V400.3H139.1V522.6z" transform="matrix(1, 0, 0, 1, 8.526512829121202e-14, 2.1316282072803006e-14)"/><path d="M322.9,566.4H137.3c-1,0-1.9-0.8-1.9-1.9c0-1,0.8-1.9,1.9-1.9h185.7c1,0,1.9,0.8,1.9,1.9&#10;&#9;&#9;&#9;&#9;C324.8,565.6,323.9,566.4,322.9,566.4z" transform="matrix(1, 0, 0, 1, 8.526512829121202e-14, 2.1316282072803006e-14)"/><path d="M322.9,607.3H137.3c-1,0-1.9-0.8-1.9-1.9c0-1,0.8-1.9,1.9-1.9h185.7c1,0,1.9,0.8,1.9,1.9&#10;&#9;&#9;&#9;&#9;C324.8,606.4,323.9,607.3,322.9,607.3z" transform="matrix(1, 0, 0, 1, 8.526512829121202e-14, 2.1316282072803006e-14)"/><path d="M322.9,648.1H137.3c-1,0-1.9-0.8-1.9-1.9c0-1,0.8-1.9,1.9-1.9h185.7c1,0,1.9,0.8,1.9,1.9&#10;&#9;&#9;&#9;&#9;C324.8,647.3,323.9,648.1,322.9,648.1z" transform="matrix(1, 0, 0, 1, 8.526512829121202e-14, 2.1316282072803006e-14)"/><path d="M517.8,566.4h-71.4c-1,0-1.9-0.8-1.9-1.9c0-1,0.8-1.9,1.9-1.9h71.4c1,0,1.9,0.8,1.9,1.9&#10;&#9;&#9;&#9;&#9;C519.6,565.6,518.8,566.4,517.8,566.4z" transform="matrix(1, 0, 0, 1, 8.526512829121202e-14, 2.1316282072803006e-14)"/><path d="M517.8,607.3h-71.4c-1,0-1.9-0.8-1.9-1.9c0-1,0.8-1.9,1.9-1.9h71.4c1,0,1.9,0.8,1.9,1.9&#10;&#9;&#9;&#9;&#9;C519.6,606.4,518.8,607.3,517.8,607.3z" transform="matrix(1, 0, 0, 1, 8.526512829121202e-14, 2.1316282072803006e-14)"/><g transform="matrix(1, 0, 0, 1, 8.526512829121202e-14, 2.1316282072803006e-14)">
				<path d="M242.5,463.3H158c-1,0-1.9-0.8-1.9-1.9s0.8-1.9,1.9-1.9h84.5c1,0,1.9,0.8,1.9,1.9S243.5,463.3,242.5,463.3z"/>
			</g><path d="M200.2,505.6c-1,0-1.9-0.8-1.9-1.9v-84.5c0-1,0.8-1.9,1.9-1.9c1,0,1.9,0.8,1.9,1.9v84.5&#10;&#9;&#9;&#9;&#9;&#9;C202.1,504.8,201.3,505.6,200.2,505.6z" transform="matrix(1, 0, 0, 1, 1.1368683772161603e-13, 2.842170943040401e-14)"/><g transform="matrix(1, 0, 0, 1, 5.684341886080802e-14, 1.4210854715202004e-14)">
			<path fill="#FFFFFF" d="M702.3,612.5v261c0,5.7,4.6,10.4,10.4,10.4h385.6c5.7,0,10.4-4.6,10.4-10.4v-261H702.3z"/>
			<path d="M1098.2,885.7H712.6c-6.7,0-12.2-5.5-12.2-12.2v-261c0-1,0.8-1.9,1.9-1.9h406.3c1,0,1.9,0.8,1.9,1.9v261&#10;&#9;&#9;&#9;&#9;C1110.4,880.2,1104.9,885.7,1098.2,885.7z M704.1,614.4v259.1c0,4.7,3.8,8.5,8.5,8.5h385.6c4.7,0,8.5-3.8,8.5-8.5V614.4H704.1z"/>
		</g><g transform="matrix(1, 0, 0, 1, 8.526512829121202e-14, 2.1316282072803006e-14)">
				<path fill="#FFFFFF" d="M1108.6,576.3c0-5.7-4.6-10.4-10.4-10.4H712.6c-5.7,0-10.4,4.6-10.4,10.4v36.3h406.3V576.3z"/>
				<path d="M1108.6,614.4H702.3c-1,0-1.9-0.8-1.9-1.9v-36.3c0-6.7,5.5-12.2,12.2-12.2h385.6c6.7,0,12.2,5.5,12.2,12.2v36.3&#10;&#9;&#9;&#9;&#9;&#9;C1110.4,613.5,1109.6,614.4,1108.6,614.4z M704.1,610.7h402.6v-34.4c0-4.7-3.8-8.5-8.5-8.5H712.6c-4.7,0-8.5,3.8-8.5,8.5V610.7z&#10;&#9;&#9;&#9;&#9;&#9;"/>
			</g><path d="M 715 581.700012 H 730 V 596.700012 H 715 V 581.700012 Z" fill="#FFFFFF" transform="matrix(1, 0, 0, 1, 1.1368683772161603e-13, 2.842170943040401e-14)"/><path d="M730,598.6h-15c-1,0-1.9-0.8-1.9-1.9v-15c0-1,0.8-1.9,1.9-1.9h15c1,0,1.9,0.8,1.9,1.9v15&#10;&#9;&#9;&#9;&#9;&#9;C731.9,597.7,731.1,598.6,730,598.6z M716.9,594.9h11.3v-11.3h-11.3V594.9z" transform="matrix(1, 0, 0, 1, 1.1368683772161603e-13, 2.842170943040401e-14)"/><path d="M 746.400024 581.700012 H 761.400024 V 596.700012 H 746.400024 V 581.700012 Z" fill="#FFFFFF" transform="matrix(1, 0, 0, 1, 1.1368683772161603e-13, 2.842170943040401e-14)"/><path d="M761.4,598.6h-15c-1,0-1.9-0.8-1.9-1.9v-15c0-1,0.8-1.9,1.9-1.9h15c1,0,1.9,0.8,1.9,1.9v15&#10;&#9;&#9;&#9;&#9;&#9;C763.2,597.7,762.4,598.6,761.4,598.6z M748.2,594.9h11.3v-11.3h-11.3V594.9z" transform="matrix(1, 0, 0, 1, 1.1368683772161603e-13, 2.842170943040401e-14)"/><path d="M 777.700012 581.700012 H 792.700012 V 596.700012 H 777.700012 V 581.700012 Z" fill="#FFFFFF" transform="matrix(1, 0, 0, 1, 1.1368683772161603e-13, 2.842170943040401e-14)"/><path d="M792.7,598.6h-15c-1,0-1.9-0.8-1.9-1.9v-15c0-1,0.8-1.9,1.9-1.9h15c1,0,1.9,0.8,1.9,1.9v15&#10;&#9;&#9;&#9;&#9;&#9;C794.6,597.7,793.7,598.6,792.7,598.6z M779.5,594.9h11.3v-11.3h-11.3V594.9z" transform="matrix(1, 0, 0, 1, 1.1368683772161603e-13, 2.842170943040401e-14)"/><path d="M795.6,649.2h-73.1c-1,0-1.9-0.8-1.9-1.9v-16.3c0-1,0.8-1.9,1.9-1.9h73.1c1,0,1.9,0.8,1.9,1.9v16.3&#10;&#9;&#9;&#9;&#9;&#9;C797.5,648.4,796.6,649.2,795.6,649.2z M724.4,645.5h69.4v-12.5h-69.4V645.5z" transform="matrix(1, 0, 0, 1, 1.1368683772161603e-13, 2.842170943040401e-14)"/><path d="M844.1,649.2h-25.6c-1,0-1.9-0.8-1.9-1.9v-16.3c0-1,0.8-1.9,1.9-1.9h25.6c1,0,1.9,0.8,1.9,1.9v16.3&#10;&#9;&#9;&#9;&#9;&#9;C846,648.4,845.1,649.2,844.1,649.2z M820.4,645.5h21.9v-12.5h-21.9V645.5z" transform="matrix(1, 0, 0, 1, 1.1368683772161603e-13, 2.842170943040401e-14)"/><path d="M773.7,683.3h-51.2c-1,0-1.9-0.8-1.9-1.9v-16.3c0-1,0.8-1.9,1.9-1.9h51.2c1,0,1.9,0.8,1.9,1.9v16.3&#10;&#9;&#9;&#9;&#9;&#9;C775.6,682.5,774.8,683.3,773.7,683.3z M724.4,679.6h47.5v-12.5h-47.5V679.6z" transform="matrix(1, 0, 0, 1, 1.1368683772161603e-13, 2.842170943040401e-14)"/><path d="M773.7,717.5h-51.2c-1,0-1.9-0.8-1.9-1.9v-16.3c0-1,0.8-1.9,1.9-1.9h51.2c1,0,1.9,0.8,1.9,1.9v16.3&#10;&#9;&#9;&#9;&#9;&#9;C775.6,716.7,774.8,717.5,773.7,717.5z M724.4,713.8h47.5v-12.5h-47.5V713.8z" transform="matrix(1, 0, 0, 1, 1.1368683772161603e-13, 2.842170943040401e-14)"/><path d="M773.7,847.1h-51.2c-1,0-1.9-0.8-1.9-1.9V829c0-1,0.8-1.9,1.9-1.9h51.2c1,0,1.9,0.8,1.9,1.9v16.3&#10;&#9;&#9;&#9;&#9;&#9;C775.6,846.3,774.8,847.1,773.7,847.1z M724.4,843.4h47.5v-12.5h-47.5V843.4z" transform="matrix(1, 0, 0, 1, 1.1368683772161603e-13, 2.842170943040401e-14)"/><path d="M1084.6,813H722.5c-1,0-1.9-0.8-1.9-1.9v-16.3c0-1,0.8-1.9,1.9-1.9h362.1c1,0,1.9,0.8,1.9,1.9v16.3&#10;&#9;&#9;&#9;&#9;&#9;C1086.4,812.1,1085.6,813,1084.6,813z M724.4,809.3h358.3v-12.5H724.4V809.3z" transform="matrix(1, 0, 0, 1, 1.1368683772161603e-13, 2.842170943040401e-14)"/><path d="M1042.9,751.7h-51.2c-1,0-1.9-0.8-1.9-1.9v-16.3c0-1,0.8-1.9,1.9-1.9h51.2c1,0,1.9,0.8,1.9,1.9v16.3&#10;&#9;&#9;&#9;&#9;&#9;C1044.8,750.8,1043.9,751.7,1042.9,751.7z M993.6,748h47.5v-12.5h-47.5V748z" transform="matrix(1, 0, 0, 1, 1.1368683772161603e-13, 2.842170943040401e-14)"/><path d="M1084.6,717.5h-92.9c-1,0-1.9-0.8-1.9-1.9v-16.3c0-1,0.8-1.9,1.9-1.9h92.9c1,0,1.9,0.8,1.9,1.9v16.3&#10;&#9;&#9;&#9;&#9;&#9;C1086.4,716.7,1085.6,717.5,1084.6,717.5z M993.6,713.8h89.2v-12.5h-89.2V713.8z" transform="matrix(1, 0, 0, 1, 1.1368683772161603e-13, 2.842170943040401e-14)"/><path d="M859.8,779H722.5c-1,0-1.9-0.8-1.9-1.9v-43.6c0-1,0.8-1.9,1.9-1.9h137.3c1,0,1.9,0.8,1.9,1.9v43.6&#10;&#9;&#9;&#9;&#9;&#9;C861.7,778.2,860.9,779,859.8,779z M724.4,775.3H858v-39.9H724.4V775.3z" transform="matrix(1, 0, 0, 1, 1.1368683772161603e-13, 2.842170943040401e-14)"/><path d="M1084.6,683.3h-288c-1,0-1.9-0.8-1.9-1.9v-16.3c0-1,0.8-1.9,1.9-1.9h288c1,0,1.9,0.8,1.9,1.9v16.3&#10;&#9;&#9;&#9;&#9;&#9;C1086.4,682.5,1085.6,683.3,1084.6,683.3z M798.5,679.6h284.2v-12.5H798.5V679.6z" transform="matrix(1, 0, 0, 1, 1.1368683772161603e-13, 2.842170943040401e-14)"/><path fill="#FFFFFF" d="M1006.3,748.2c0,55.7-45.1,100.8-100.8,100.8s-100.8-45.1-100.8-100.8c0-55.7,45.1-100.8,100.8-100.8&#10;&#9;&#9;&#9;&#9;&#9;S1006.3,692.5,1006.3,748.2z" transform="matrix(1, 0, 0, 1, 1.1368683772161603e-13, 2.842170943040401e-14)"/><path d="M905.4,850.9c-56.6,0-102.7-46.1-102.7-102.7c0-56.6,46.1-102.7,102.7-102.7s102.7,46.1,102.7,102.7&#10;&#9;&#9;&#9;&#9;&#9;C1008.1,804.8,962,850.9,905.4,850.9z M905.4,649.2c-54.6,0-99,44.4-99,99c0,54.6,44.4,99,99,99s99-44.4,99-99&#10;&#9;&#9;&#9;&#9;&#9;C1004.4,693.6,960,649.2,905.4,649.2z" transform="matrix(1, 0, 0, 1, 1.1368683772161603e-13, 2.842170943040401e-14)"/><path d="M 874.400024 772.799988 L 831.700012 748.200012 L 874.400024 723.5" fill="#FFFFFF" transform="matrix(1, 0, 0, 1, 1.1368683772161603e-13, 2.842170943040401e-14)"/><path d="M874.4,774.7c-0.3,0-0.6-0.1-0.9-0.3l-42.7-24.7c-0.6-0.3-0.9-0.9-0.9-1.6s0.4-1.3,0.9-1.6l42.7-24.7&#10;&#9;&#9;&#9;&#9;&#9;c0.9-0.5,2-0.2,2.5,0.7c0.5,0.9,0.2,2-0.7,2.5l-39.9,23.1l39.9,23.1c0.9,0.5,1.2,1.6,0.7,2.5C875.7,774.4,875,774.7,874.4,774.7&#10;&#9;&#9;&#9;&#9;&#9;z" transform="matrix(1, 0, 0, 1, 1.1368683772161603e-13, 2.842170943040401e-14)"/><path d="M 936.400024 772.799988 L 979.200012 748.200012 L 936.400024 723.5" fill="#FFFFFF" transform="matrix(1, 0, 0, 1, 1.1368683772161603e-13, 2.842170943040401e-14)"/><path d="M936.4,774.7c-0.6,0-1.3-0.3-1.6-0.9c-0.5-0.9-0.2-2,0.7-2.5l39.9-23.1l-39.9-23.1c-0.9-0.5-1.2-1.6-0.7-2.5&#10;&#9;&#9;&#9;&#9;&#9;c0.5-0.9,1.6-1.2,2.5-0.7l42.7,24.7c0.6,0.3,0.9,0.9,0.9,1.6s-0.4,1.3-0.9,1.6l-42.7,24.7C937.1,774.6,936.7,774.7,936.4,774.7z&#10;&#9;&#9;&#9;&#9;&#9;" transform="matrix(1, 0, 0, 1, 1.1368683772161603e-13, 2.842170943040401e-14)"/><path d="M 923.900024 704.299988 L 886.900024 792" fill="#FFFFFF" transform="matrix(1, 0, 0, 1, 1.1368683772161603e-13, 2.842170943040401e-14)"/><path d="M886.9,793.9c-0.2,0-0.5,0-0.7-0.1c-0.9-0.4-1.4-1.5-1-2.4l37-87.7c0.4-0.9,1.5-1.4,2.4-1c0.9,0.4,1.4,1.5,1,2.4&#10;&#9;&#9;&#9;&#9;&#9;l-37,87.7C888.3,793.5,887.6,793.9,886.9,793.9z" transform="matrix(1, 0, 0, 1, 1.1368683772161603e-13, 2.842170943040401e-14)"/><g transform="matrix(1, 0, 0, 1, 5.684341886080802e-14, 1.4210854715202004e-14)">
			<path d="M1286.3,461.7H746.1c-1,0-1.9-0.8-1.9-1.9V135.6c0-14.5,11.8-26.2,26.2-26.2h491.4c14.5,0,26.2,11.8,26.2,26.2v324.3&#10;&#9;&#9;&#9;&#9;C1288.1,460.9,1287.3,461.7,1286.3,461.7z M748,458h536.5V135.6c0-12.4-10.1-22.5-22.5-22.5H770.5c-12.4,0-22.5,10.1-22.5,22.5&#10;&#9;&#9;&#9;&#9;V458z"/>
		</g><path d="M1303.2,507.8h-574c-16.7,0-30.3-13.6-30.3-30.3v-17.5c0-1,0.8-1.9,1.9-1.9h630.9c1,0,1.9,0.8,1.9,1.9v17.5&#10;&#9;&#9;&#9;&#9;C1333.5,494.2,1319.9,507.8,1303.2,507.8z M702.6,461.7v15.7c0,14.7,11.9,26.6,26.6,26.6h574c14.7,0,26.6-11.9,26.6-26.6v-15.7&#10;&#9;&#9;&#9;&#9;H702.6z" transform="matrix(1, 0, 0, 1, 8.526512829121202e-14, 2.1316282072803006e-14)"/><path d="M1261.9,437.4H770.5c-1,0-1.9-0.8-1.9-1.9V135.6c0-1,0.8-1.9,1.9-1.9h491.4c1,0,1.9,0.8,1.9,1.9v299.9&#10;&#9;&#9;&#9;&#9;C1263.8,436.5,1262.9,437.4,1261.9,437.4z M772.3,433.7h487.7V137.4H772.3V433.7z" transform="matrix(1, 0, 0, 1, 8.526512829121202e-14, 2.1316282072803006e-14)"/><path d="M1107.6,477H924.8c-1,0-1.9-0.8-1.9-1.9v-15.2c0-1,0.8-1.9,1.9-1.9h182.9c1,0,1.9,0.8,1.9,1.9v15.2&#10;&#9;&#9;&#9;&#9;C1109.5,476.2,1108.7,477,1107.6,477z M926.6,473.3h179.1v-11.5H926.6V473.3z" transform="matrix(1, 0, 0, 1, 8.526512829121202e-14, 2.1316282072803006e-14)"/><path d="M 794.299988 160.699997 H 1238.099976 V 190.399998 H 794.299988 V 160.699997 Z" fill="#FFFFFF" transform="matrix(1, 0, 0, 1, 5.684341886080802e-14, 1.4210854715202004e-14)"/><path d="M1238.1,192.2H794.3c-1,0-1.9-0.8-1.9-1.9v-29.7c0-1,0.8-1.9,1.9-1.9h443.8c1,0,1.9,0.8,1.9,1.9v29.7&#10;&#9;&#9;&#9;C1239.9,191.4,1239.1,192.2,1238.1,192.2z M796.1,188.5h440.1v-26H796.1V188.5z" transform="matrix(1, 0, 0, 1, 5.684341886080802e-14, 1.4210854715202004e-14)"/><path d="M 794.299988 217.300003 H 1032.399994 V 353.900009 H 794.299988 V 217.300003 Z" fill="#FFFFFF" transform="matrix(1, 0, 0, 1, 5.684341886080802e-14, 1.4210854715202004e-14)"/><path d="M1032.4,355.7H794.3c-1,0-1.9-0.8-1.9-1.9V217.3c0-1,0.8-1.9,1.9-1.9h238.1c1,0,1.9,0.8,1.9,1.9v136.6&#10;&#9;&#9;&#9;C1034.2,354.8,1033.4,355.7,1032.4,355.7z M796.1,352h234.4V219.1H796.1V352z" transform="matrix(1, 0, 0, 1, 5.684341886080802e-14, 1.4210854715202004e-14)"/><path d="M 794.299988 379.899994 H 924.799988 V 409.599995 H 794.299988 V 379.899994 Z" fill="#FFFFFF" transform="matrix(1, 0, 0, 1, 5.684341886080802e-14, 1.4210854715202004e-14)"/><path d="M924.8,411.5H794.3c-1,0-1.9-0.8-1.9-1.9v-29.7c0-1,0.8-1.9,1.9-1.9h130.5c1,0,1.9,0.8,1.9,1.9v29.7&#10;&#9;&#9;&#9;C926.6,410.6,925.8,411.5,924.8,411.5z M796.1,407.8h126.8v-26H796.1V407.8z" transform="matrix(1, 0, 0, 1, 5.684341886080802e-14, 1.4210854715202004e-14)"/><path d="M 951 379.899994 H 1081.5 V 409.599995 H 951 V 379.899994 Z" fill="#FFFFFF" transform="matrix(1, 0, 0, 1, 5.684341886080802e-14, 1.4210854715202004e-14)"/><path d="M1081.4,411.5H951c-1,0-1.9-0.8-1.9-1.9v-29.7c0-1,0.8-1.9,1.9-1.9h130.5c1,0,1.9,0.8,1.9,1.9v29.7&#10;&#9;&#9;&#9;C1083.3,410.6,1082.5,411.5,1081.4,411.5z M952.8,407.8h126.8v-26H952.8V407.8z" transform="matrix(1, 0, 0, 1, 5.684341886080802e-14, 1.4210854715202004e-14)"/><path d="M 1107.599976 379.899994 H 1238.099976 V 409.599995 H 1107.599976 V 379.899994 Z" fill="#FFFFFF" transform="matrix(1, 0, 0, 1, 5.684341886080802e-14, 1.4210854715202004e-14)"/><path d="M1238.1,411.5h-130.5c-1,0-1.9-0.8-1.9-1.9v-29.7c0-1,0.8-1.9,1.9-1.9h130.5c1,0,1.9,0.8,1.9,1.9v29.7&#10;&#9;&#9;&#9;C1239.9,410.6,1239.1,411.5,1238.1,411.5z M1109.5,407.8h126.8v-26h-126.8V407.8z" transform="matrix(1, 0, 0, 1, 5.684341886080802e-14, 1.4210854715202004e-14)"/><path d="M 1060.199951 324.100006 H 1238.099945 V 353.800007 H 1060.199951 V 324.100006 Z" fill="#FFFFFF" transform="matrix(1, 0, 0, 1, 5.684341886080802e-14, 1.4210854715202004e-14)"/><path d="M1238.1,355.7h-177.9c-1,0-1.9-0.8-1.9-1.9v-29.7c0-1,0.8-1.9,1.9-1.9h177.9c1,0,1.9,0.8,1.9,1.9v29.7&#10;&#9;&#9;&#9;C1239.9,354.8,1239.1,355.7,1238.1,355.7z M1062,352h174.2v-26H1062V352z" transform="matrix(1, 0, 0, 1, 5.684341886080802e-14, 1.4210854715202004e-14)"/><path d="M 1060.199951 217.300003 H 1238.099945 V 298 H 1060.199951 V 217.300003 Z" fill="#FFFFFF" transform="matrix(1, 0, 0, 1, 5.684341886080802e-14, 1.4210854715202004e-14)"/><path d="M1238.1,299.8h-177.9c-1,0-1.9-0.8-1.9-1.9v-80.7c0-1,0.8-1.9,1.9-1.9h177.9c1,0,1.9,0.8,1.9,1.9V298&#10;&#9;&#9;&#9;C1239.9,299,1239.1,299.8,1238.1,299.8z M1062,296.1h174.2v-77H1062V296.1z" transform="matrix(1, 0, 0, 1, 5.684341886080802e-14, 1.4210854715202004e-14)"/><path fill="#FFFFFF" d="M814.5,288.1l9.4,3.8c0.6,3.8,1.9,7.6,3.8,11.1l-5,8.8c0.3,0.4,0.6,0.8,0.8,1.2&#10;&#9;&#9;&#9;c6.3,8.3,14.9,13.8,24.3,16.4l6.5-7.7c3.9,0.6,7.9,0.5,11.8-0.2l6.8,7.5c4.9-1.5,9.5-3.9,13.8-7.1c4.3-3.2,7.8-7.1,10.6-11.4&#10;&#9;&#9;&#9;l-5.3-8.6c1.8-3.6,2.9-7.4,3.4-11.3l9.2-4.1c0.1-9.7-2.8-19.5-9.1-27.8c-0.3-0.4-0.6-0.8-0.9-1.1l-9.8,2.4&#10;&#9;&#9;&#9;c-2.9-2.8-6.2-5.1-9.7-6.7l-1.1-10.1c-9.8-3.3-20.7-3.2-30.6,0.6l-0.7,10.1c-1.7,0.9-3.4,2-5,3.2c-1.6,1.2-3.1,2.5-4.4,3.9&#10;&#9;&#9;&#9;l-9.9-2.1C817,267.3,814,277.8,814.5,288.1z M844.2,265.6c11.2-8.4,27.1-6.2,35.6,5c8.4,11.2,6.2,27.1-5,35.5&#10;&#9;&#9;&#9;c-11.2,8.4-27.1,6.2-35.5-5C830.8,289.9,833.1,274,844.2,265.6z" transform="matrix(1, 0, 0, 1, 5.684341886080802e-14, 1.4210854715202004e-14)"/><path d="M847.8,331.2c-0.2,0-0.3,0-0.5-0.1c-10.2-2.7-18.9-8.6-25.3-17l-0.9-1.2c-0.4-0.6-0.5-1.4-0.1-2l4.5-7.9&#10;&#9;&#9;&#9;c-1.6-3.1-2.7-6.4-3.4-9.8l-8.4-3.4c-0.7-0.3-1.1-0.9-1.2-1.6c-0.5-10.9,2.8-21.8,9.3-30.5c0.4-0.6,1.2-0.9,1.9-0.7l8.9,1.9&#10;&#9;&#9;&#9;c1.2-1.2,2.6-2.4,3.9-3.4c1.3-1,2.8-2,4.3-2.8l0.7-9.1c0.1-0.7,0.5-1.3,1.2-1.6c10.2-3.9,21.6-4.1,31.9-0.6&#10;&#9;&#9;&#9;c0.7,0.2,1.2,0.8,1.2,1.6l1,9.1c3.1,1.6,5.9,3.6,8.5,5.9l8.8-2.2c0.7-0.2,1.5,0.1,1.9,0.7l0.3,0.4c0.2,0.3,0.4,0.5,0.6,0.8&#10;&#9;&#9;&#9;c6.3,8.4,9.6,18.4,9.5,29c0,0.7-0.4,1.4-1.1,1.7l-8.3,3.7c-0.5,3.4-1.6,6.7-3,9.9l4.8,7.7c0.4,0.6,0.4,1.4,0,2&#10;&#9;&#9;&#9;c-3,4.6-6.7,8.5-11,11.8c-4.4,3.3-9.2,5.8-14.4,7.4c-0.7,0.2-1.4,0-1.9-0.5l-6.1-6.7c-3.4,0.5-6.9,0.6-10.3,0.2l-5.9,6.9&#10;&#9;&#9;&#9;C848.9,331,848.4,331.2,847.8,331.2z M824.9,311.7l0.1,0.2c5.6,7.4,13.2,12.7,22.1,15.4l5.7-6.8c0.4-0.5,1-0.7,1.7-0.6&#10;&#9;&#9;&#9;c3.7,0.5,7.5,0.5,11.2-0.2c0.6-0.1,1.3,0.1,1.7,0.6l6,6.6c4.4-1.5,8.4-3.6,12.2-6.4c3.7-2.8,6.9-6.1,9.5-9.9l-4.7-7.6&#10;&#9;&#9;&#9;c-0.3-0.5-0.4-1.2-0.1-1.8c1.7-3.4,2.8-7,3.2-10.7c0.1-0.6,0.5-1.2,1.1-1.5l8.1-3.7c-0.1-9.3-3.1-18.1-8.7-25.5l-0.1-0.2l-8.6,2.1&#10;&#9;&#9;&#9;c-0.6,0.1-1.3,0-1.7-0.5c-2.7-2.6-5.7-4.8-9.2-6.4c-0.6-0.3-1-0.8-1-1.5l-1-8.9c-8.8-2.7-18.5-2.6-27.1,0.5l-0.6,8.9&#10;&#9;&#9;&#9;c0,0.6-0.4,1.2-1,1.5c-1.7,0.9-3.3,1.9-4.7,3c-1.5,1.1-2.9,2.4-4.2,3.7c-0.4,0.5-1.1,0.7-1.7,0.5l-8.7-1.8&#10;&#9;&#9;&#9;c-5.3,7.5-8.1,16.7-7.9,26l8.3,3.4c0.6,0.2,1,0.8,1.1,1.4c0.6,3.7,1.8,7.3,3.6,10.6c0.3,0.6,0.3,1.2,0,1.8L824.9,311.7z&#10;&#9;&#9;&#9; M859.6,313.1c-8.6,0-16.6-3.9-21.8-10.8c-9-12-6.7-29.1,5.3-38.1c4.8-3.6,10.4-5.5,16.4-5.5c8.6,0,16.6,3.9,21.8,10.8&#10;&#9;&#9;&#9;c9,12,6.7,29.1-5.3,38.1C871.2,311.2,865.5,313.1,859.6,313.1z M859.5,262.3c-5.1,0-10,1.6-14.2,4.8c-10.3,7.8-12.4,22.6-4.6,32.9&#10;&#9;&#9;&#9;c4.5,5.9,11.3,9.3,18.8,9.3c5.1,0,10-1.6,14.2-4.8c10.3-7.8,12.4-22.6,4.6-32.9C873.8,265.7,867,262.3,859.5,262.3z" transform="matrix(1, 0, 0, 1, 5.684341886080802e-14, 1.4210854715202004e-14)"/><path d="M1010.1,249.8h-85.3c-1,0-1.9-0.8-1.9-1.9c0-1,0.8-1.9,1.9-1.9h85.3c1,0,1.9,0.8,1.9,1.9&#10;&#9;&#9;&#9;C1011.9,249,1011.1,249.8,1010.1,249.8z" transform="matrix(1, 0, 0, 1, 5.684341886080802e-14, 1.4210854715202004e-14)"/><path d="M1010.1,274.9h-85.3c-1,0-1.9-0.8-1.9-1.9s0.8-1.9,1.9-1.9h85.3c1,0,1.9,0.8,1.9,1.9S1011.1,274.9,1010.1,274.9z" transform="matrix(1, 0, 0, 1, 5.684341886080802e-14, 1.4210854715202004e-14)"/><path d="M1010.1,299.9h-85.3c-1,0-1.9-0.8-1.9-1.9c0-1,0.8-1.9,1.9-1.9h85.3c1,0,1.9,0.8,1.9,1.9&#10;&#9;&#9;&#9;C1011.9,299.1,1011.1,299.9,1010.1,299.9z" transform="matrix(1, 0, 0, 1, 5.684341886080802e-14, 1.4210854715202004e-14)"/><path d="M1010.1,325h-85.3c-1,0-1.9-0.8-1.9-1.9s0.8-1.9,1.9-1.9h85.3c1,0,1.9,0.8,1.9,1.9S1011.1,325,1010.1,325z" transform="matrix(1, 0, 0, 1, 5.684341886080802e-14, 1.4210854715202004e-14)"/><path d="M1089.3,274.2c-9.2,0-16.6-7.5-16.6-16.6c0-9.2,7.5-16.6,16.6-16.6c9.2,0,16.6,7.5,16.6,16.6&#10;&#9;&#9;&#9;C1106,266.8,1098.5,274.2,1089.3,274.2z M1089.3,244.7c-7.1,0-12.9,5.8-12.9,12.9c0,7.1,5.8,12.9,12.9,12.9&#10;&#9;&#9;&#9;c7.1,0,12.9-5.8,12.9-12.9C1102.3,250.5,1096.5,244.7,1089.3,244.7z" transform="matrix(1, 0, 0, 1, 5.684341886080802e-14, 1.4210854715202004e-14)"/><path d="M1149.1,274.2c-9.2,0-16.6-7.5-16.6-16.6c0-9.2,7.5-16.6,16.6-16.6c9.2,0,16.6,7.5,16.6,16.6&#10;&#9;&#9;&#9;C1165.8,266.8,1158.3,274.2,1149.1,274.2z M1149.1,244.7c-7.1,0-12.9,5.8-12.9,12.9c0,7.1,5.8,12.9,12.9,12.9&#10;&#9;&#9;&#9;c7.1,0,12.9-5.8,12.9-12.9C1162.1,250.5,1156.3,244.7,1149.1,244.7z" transform="matrix(1, 0, 0, 1, 5.684341886080802e-14, 1.4210854715202004e-14)"/><path d="M1208.9,274.2c-9.2,0-16.6-7.5-16.6-16.6c0-9.2,7.5-16.6,16.6-16.6s16.6,7.5,16.6,16.6&#10;&#9;&#9;&#9;C1225.6,266.8,1218.1,274.2,1208.9,274.2z M1208.9,244.7c-7.1,0-12.9,5.8-12.9,12.9c0,7.1,5.8,12.9,12.9,12.9&#10;&#9;&#9;&#9;c7.1,0,12.9-5.8,12.9-12.9C1221.8,250.5,1216,244.7,1208.9,244.7z" transform="matrix(1, 0, 0, 1, 5.684341886080802e-14, 1.4210854715202004e-14)"/><g transform="matrix(1, 0, 0, 1, 5.684341886080802e-14, 1.4210854715202004e-14)">
			<g>
				<path d="M 74.80000305175781 540.0999755859375 L 74.80000305175781 894.9000244140625 L 283.79998779296875 894.9000244140625 Z" fill="#FFFFFF"/>
				<path d="M283.8,896.7h-209c-1,0-1.9-0.8-1.9-1.9V540.1c0-0.8,0.6-1.6,1.4-1.8c0.8-0.2,1.7,0.1,2.1,0.8l209,354.8&#10;&#9;&#9;&#9;&#9;&#9;c0.3,0.6,0.3,1.3,0,1.9C285.1,896.4,284.4,896.7,283.8,896.7z M76.6,893h203.9L76.6,546.9V893z"/>
			</g>
			<g>
				<path d="M 121.19999694824219 848.4000244140625 L 121.19999694824219 710.5 L 202.5 848.4000244140625 Z" fill="#FFFFFF"/>
				<path d="M202.6,850.2C202.5,850.3,202.5,850.2,202.6,850.2h-81.3c-1,0-1.9-0.8-1.9-1.9V710.5c0-0.8,0.6-1.6,1.4-1.8&#10;&#9;&#9;&#9;&#9;&#9;c0.8-0.2,1.7,0.1,2.1,0.8l81,137.5c0.3,0.3,0.6,0.8,0.6,1.3C204.4,849.4,203.6,850.2,202.6,850.2z M123.1,846.5h76.1&#10;&#9;&#9;&#9;&#9;&#9;l-76.1-129.3V846.5z"/>
			</g>
		</g><path d="M95.8,875.7h-21c-1,0-1.9-0.8-1.9-1.9c0-1,0.8-1.9,1.9-1.9h21c1,0,1.9,0.8,1.9,1.9C97.7,874.9,96.8,875.7,95.8,875.7z" transform="matrix(1, 0, 0, 1, 8.526512829121202e-14, 2.1316282072803006e-14)"/><path d="M85.3,855.9H74.8c-1,0-1.9-0.8-1.9-1.9c0-1,0.8-1.9,1.9-1.9h10.5c1,0,1.9,0.8,1.9,1.9C87.1,855.1,86.3,855.9,85.3,855.9z&#10;&#9;&#9;&#9;&#9;" transform="matrix(1, 0, 0, 1, 8.526512829121202e-14, 2.1316282072803006e-14)"/><path d="M85.3,836.5H74.8c-1,0-1.9-0.8-1.9-1.9c0-1,0.8-1.9,1.9-1.9h10.5c1,0,1.9,0.8,1.9,1.9C87.1,835.6,86.3,836.5,85.3,836.5z&#10;&#9;&#9;&#9;&#9;" transform="matrix(1, 0, 0, 1, 8.526512829121202e-14, 2.1316282072803006e-14)"/><path d="M85.3,817H74.8c-1,0-1.9-0.8-1.9-1.9c0-1,0.8-1.9,1.9-1.9h10.5c1,0,1.9,0.8,1.9,1.9C87.1,816.1,86.3,817,85.3,817z" transform="matrix(1, 0, 0, 1, 8.526512829121202e-14, 2.1316282072803006e-14)"/><path d="M85.3,797.5H74.8c-1,0-1.9-0.8-1.9-1.9c0-1,0.8-1.9,1.9-1.9h10.5c1,0,1.9,0.8,1.9,1.9C87.1,796.7,86.3,797.5,85.3,797.5z&#10;&#9;&#9;&#9;&#9;" transform="matrix(1, 0, 0, 1, 8.526512829121202e-14, 2.1316282072803006e-14)"/><path d="M85.3,778H74.8c-1,0-1.9-0.8-1.9-1.9c0-1,0.8-1.9,1.9-1.9h10.5c1,0,1.9,0.8,1.9,1.9C87.1,777.2,86.3,778,85.3,778z" transform="matrix(1, 0, 0, 1, 8.526512829121202e-14, 2.1316282072803006e-14)"/><path d="M85.3,758.5H74.8c-1,0-1.9-0.8-1.9-1.9c0-1,0.8-1.9,1.9-1.9h10.5c1,0,1.9,0.8,1.9,1.9C87.1,757.7,86.3,758.5,85.3,758.5z&#10;&#9;&#9;&#9;&#9;" transform="matrix(1, 0, 0, 1, 8.526512829121202e-14, 2.1316282072803006e-14)"/><path d="M85.3,739H74.8c-1,0-1.9-0.8-1.9-1.9c0-1,0.8-1.9,1.9-1.9h10.5c1,0,1.9,0.8,1.9,1.9C87.1,738.2,86.3,739,85.3,739z" transform="matrix(1, 0, 0, 1, 8.526512829121202e-14, 2.1316282072803006e-14)"/><path d="M85.3,719.5H74.8c-1,0-1.9-0.8-1.9-1.9c0-1,0.8-1.9,1.9-1.9h10.5c1,0,1.9,0.8,1.9,1.9C87.1,718.7,86.3,719.5,85.3,719.5z&#10;&#9;&#9;&#9;&#9;" transform="matrix(1, 0, 0, 1, 8.526512829121202e-14, 2.1316282072803006e-14)"/><path d="M85.3,700.1H74.8c-1,0-1.9-0.8-1.9-1.9s0.8-1.9,1.9-1.9h10.5c1,0,1.9,0.8,1.9,1.9S86.3,700.1,85.3,700.1z" transform="matrix(1, 0, 0, 1, 8.526512829121202e-14, 2.1316282072803006e-14)"/><path d="M85.3,680.6H74.8c-1,0-1.9-0.8-1.9-1.9c0-1,0.8-1.9,1.9-1.9h10.5c1,0,1.9,0.8,1.9,1.9C87.1,679.7,86.3,680.6,85.3,680.6z&#10;&#9;&#9;&#9;&#9;" transform="matrix(1, 0, 0, 1, 8.526512829121202e-14, 2.1316282072803006e-14)"/><path d="M85.3,661.1H74.8c-1,0-1.9-0.8-1.9-1.9c0-1,0.8-1.9,1.9-1.9h10.5c1,0,1.9,0.8,1.9,1.9C87.1,660.3,86.3,661.1,85.3,661.1z&#10;&#9;&#9;&#9;&#9;" transform="matrix(1, 0, 0, 1, 8.526512829121202e-14, 2.1316282072803006e-14)"/><path d="M85.3,641.6H74.8c-1,0-1.9-0.8-1.9-1.9c0-1,0.8-1.9,1.9-1.9h10.5c1,0,1.9,0.8,1.9,1.9C87.1,640.8,86.3,641.6,85.3,641.6z&#10;&#9;&#9;&#9;&#9;" transform="matrix(1, 0, 0, 1, 8.526512829121202e-14, 2.1316282072803006e-14)"/><path d="M85.3,622.1H74.8c-1,0-1.9-0.8-1.9-1.9s0.8-1.9,1.9-1.9h10.5c1,0,1.9,0.8,1.9,1.9S86.3,622.1,85.3,622.1z" transform="matrix(1, 0, 0, 1, 8.526512829121202e-14, 2.1316282072803006e-14)"/><path d="M85.3,602.6H74.8c-1,0-1.9-0.8-1.9-1.9s0.8-1.9,1.9-1.9h10.5c1,0,1.9,0.8,1.9,1.9S86.3,602.6,85.3,602.6z" transform="matrix(1, 0, 0, 1, 8.526512829121202e-14, 2.1316282072803006e-14)"/><path d="M1290.2,856.9h-108.5c-11.6,0-21-9.4-21-21V585.1c0-11.6,9.4-21,21-21h108.5c11.6,0,21,9.4,21,21v250.8&#10;&#9;&#9;&#9;C1311.2,847.5,1301.8,856.9,1290.2,856.9z M1181.7,567.8c-9.5,0-17.3,7.8-17.3,17.3v250.8c0,9.5,7.8,17.3,17.3,17.3h108.5&#10;&#9;&#9;&#9;c9.5,0,17.3-7.8,17.3-17.3V585.1c0-9.5-7.8-17.3-17.3-17.3H1181.7z" transform="matrix(1, 0, 0, 1, 5.684341886080802e-14, 1.4210854715202004e-14)"/><path d="M1309.3,816h-146.8c-1,0-1.9-0.8-1.9-1.9V599.3c0-1,0.8-1.9,1.9-1.9h146.8c1,0,1.9,0.8,1.9,1.9v214.8&#10;&#9;&#9;&#9;C1311.2,815.2,1310.3,816,1309.3,816z M1164.4,812.3h143.1V601.2h-143.1V812.3z" transform="matrix(1, 0, 0, 1, 5.684341886080802e-14, 1.4210854715202004e-14)"/><path d="M1256.4,588.4h-41c-1,0-1.9-0.8-1.9-1.9v-7.2c0-1,0.8-1.9,1.9-1.9h41c1,0,1.9,0.8,1.9,1.9v7.2&#10;&#9;&#9;&#9;C1258.3,587.5,1257.4,588.4,1256.4,588.4z M1217.3,584.7h37.2v-3.5h-37.2V584.7z" transform="matrix(1, 0, 0, 1, 5.684341886080802e-14, 1.4210854715202004e-14)"/><path d="M1235.9,849.8c-8.4,0-15.2-6.8-15.2-15.2c0-8.4,6.8-15.2,15.2-15.2c8.4,0,15.2,6.8,15.2,15.2&#10;&#9;&#9;&#9;C1251.1,843,1244.3,849.8,1235.9,849.8z M1235.9,823.2c-6.3,0-11.4,5.1-11.4,11.4c0,6.3,5.1,11.4,11.4,11.4s11.4-5.1,11.4-11.4&#10;&#9;&#9;&#9;C1247.4,828.3,1242.2,823.2,1235.9,823.2z" transform="matrix(1, 0, 0, 1, 5.684341886080802e-14, 1.4210854715202004e-14)"/><g transform="matrix(1, 0, 0, 1, 5.684341886080802e-14, 1.4210854715202004e-14)">
			<path d="M1286.9,672.5h-24.3c-1,0-1.9-0.8-1.9-1.9c0-9.8-2.3-19.2-6.8-27.9c-0.3-0.5-0.3-1-0.1-1.6c0.2-0.5,0.6-0.9,1.1-1.1&#10;&#9;&#9;&#9;&#9;c5.4-1.8,10.6-4.4,15.3-7.7c0.7-0.5,1.7-0.4,2.3,0.2c10.4,10.1,16.1,23.5,16.1,37.9C1288.8,671.6,1287.9,672.5,1286.9,672.5z&#10;&#9;&#9;&#9;&#9; M1264.5,668.8h20.6c-0.5-12.2-5.3-23.6-13.9-32.4c-4.1,2.7-8.4,4.9-12.9,6.6C1262.1,651.1,1264.2,659.7,1264.5,668.8z"/>
		</g><path d="M1271.4,709.1c-0.4,0-0.7-0.1-1.1-0.3c-4.7-3.3-9.8-5.8-15.3-7.7c-0.5-0.2-0.9-0.6-1.1-1.1c-0.2-0.5-0.2-1.1,0.1-1.6&#10;&#9;&#9;&#9;&#9;c4.5-8.7,6.8-18,6.8-27.8c0-1,0.8-1.9,1.9-1.9h24.3c1,0,1.9,0.8,1.9,1.9c0,14.4-5.7,27.9-16.1,37.9&#10;&#9;&#9;&#9;&#9;C1272.3,708.9,1271.9,709.1,1271.4,709.1z M1258.2,698.3c4.6,1.7,8.9,3.9,12.9,6.6c8.5-8.8,13.4-20.2,13.9-32.4h-20.6&#10;&#9;&#9;&#9;&#9;C1264.2,681.5,1262.1,690.1,1258.2,698.3z" transform="matrix(1, 0, 0, 1, 8.526512829121202e-14, 2.1316282072803006e-14)"/><path d="M1255.6,643.8c-0.7,0-1.3-0.4-1.6-1c-4.5-8.6-11-16.1-19-21.6c-0.7-0.5-0.9-1.3-0.7-2.1c0.2-0.8,1-1.3,1.8-1.3h0&#10;&#9;&#9;&#9;&#9;c13.7,0,26.8,5.3,36.6,14.9c0.4,0.4,0.6,0.9,0.6,1.5c0,0.6-0.3,1.1-0.8,1.4c-5,3.5-10.5,6.2-16.2,8.1&#10;&#9;&#9;&#9;&#9;C1256,643.7,1255.8,643.8,1255.6,643.8z M1242,621.8c5.9,5,10.8,11.1,14.6,17.8c4.2-1.5,8.2-3.5,11.9-5.9&#10;&#9;&#9;&#9;&#9;C1260.9,627.2,1251.8,623,1242,621.8z" transform="matrix(1, 0, 0, 1, 8.526512829121202e-14, 2.1316282072803006e-14)"/><path d="M1200.4,709.1c-0.5,0-0.9-0.2-1.3-0.5c-10.4-10.1-16.1-23.5-16.1-37.9c0-1,0.8-1.9,1.9-1.9h24.3c1,0,1.9,0.8,1.9,1.9&#10;&#9;&#9;&#9;&#9;c0,9.8,2.3,19.2,6.8,27.8c0.3,0.5,0.3,1,0.1,1.6c-0.2,0.5-0.6,0.9-1.1,1.1c-5.4,1.8-10.6,4.4-15.3,7.7&#10;&#9;&#9;&#9;&#9;C1201.2,709,1200.8,709.1,1200.4,709.1z M1186.8,672.5c0.4,12.2,5.3,23.6,13.9,32.4c4-2.7,8.4-4.9,12.9-6.6&#10;&#9;&#9;&#9;&#9;c-3.9-8.1-6-16.8-6.2-25.8H1186.8z" transform="matrix(1, 0, 0, 1, 8.526512829121202e-14, 2.1316282072803006e-14)"/><path d="M1209.2,672.5h-24.3c-1,0-1.9-0.8-1.9-1.9c0-14.4,5.7-27.9,16.1-37.9c0.6-0.6,1.6-0.7,2.3-0.2c4.7,3.3,9.9,5.9,15.3,7.7&#10;&#9;&#9;&#9;&#9;c0.5,0.2,0.9,0.6,1.1,1.1c0.2,0.5,0.2,1.1-0.1,1.6c-4.5,8.7-6.8,18.1-6.8,27.9C1211,671.6,1210.2,672.5,1209.2,672.5z&#10;&#9;&#9;&#9;&#9; M1186.8,668.8h20.6c0.3-9,2.3-17.7,6.2-25.8c-4.5-1.7-8.9-3.9-12.9-6.6C1192.1,645.2,1187.3,656.6,1186.8,668.8z" transform="matrix(1, 0, 0, 1, 8.526512829121202e-14, 2.1316282072803006e-14)"/><path d="M1216.2,701.2c-0.7,0-1.3-0.4-1.6-1c-4.8-9.2-7.2-19.2-7.2-29.6c0-1,0.8-1.9,1.9-1.9h26.7c1,0,1.9,0.8,1.9,1.9v25.5&#10;&#9;&#9;&#9;&#9;c0,1-0.8,1.9-1.9,1.9c-6.5,0-12.9,1-19.1,3.1C1216.6,701.1,1216.4,701.2,1216.2,701.2z M1211.1,672.5c0.3,8.6,2.3,16.9,6.1,24.6&#10;&#9;&#9;&#9;&#9;c5.5-1.7,11.2-2.6,16.9-2.8v-21.8H1211.1z" transform="matrix(1, 0, 0, 1, 8.526512829121202e-14, 2.1316282072803006e-14)"/><path d="M1235.9,672.5h-26.7c-1,0-1.9-0.8-1.9-1.9c0-10.4,2.4-20.3,7.2-29.6c0.4-0.8,1.4-1.2,2.2-0.9c6.2,2.1,12.6,3.1,19.1,3.1&#10;&#9;&#9;&#9;&#9;c1,0,1.9,0.8,1.9,1.9v25.5C1237.8,671.6,1236.9,672.5,1235.9,672.5z M1211.1,668.8h23v-21.8c-5.7-0.2-11.4-1.1-16.9-2.8&#10;&#9;&#9;&#9;&#9;C1213.4,651.9,1211.3,660.1,1211.1,668.8z" transform="matrix(1, 0, 0, 1, 8.526512829121202e-14, 2.1316282072803006e-14)"/><path d="M1262.6,672.5h-26.7c-1,0-1.9-0.8-1.9-1.9v-25.5c0-1,0.8-1.9,1.9-1.9c6.5,0,12.9-1,19.1-3.1c0.9-0.3,1.8,0.1,2.2,0.9&#10;&#9;&#9;&#9;&#9;c4.8,9.2,7.2,19.2,7.2,29.6C1264.5,671.6,1263.7,672.5,1262.6,672.5z M1237.8,668.8h23c-0.3-8.6-2.3-16.9-6.1-24.6&#10;&#9;&#9;&#9;&#9;c-5.5,1.7-11.2,2.6-16.9,2.8V668.8z" transform="matrix(1, 0, 0, 1, 8.526512829121202e-14, 2.1316282072803006e-14)"/><path d="M1255.6,701.2c-0.2,0-0.4,0-0.6-0.1c-6.2-2.1-12.6-3.1-19.1-3.1c-1,0-1.9-0.8-1.9-1.9v-25.5c0-1,0.8-1.9,1.9-1.9h26.7&#10;&#9;&#9;&#9;&#9;c1,0,1.9,0.8,1.9,1.9c0,10.4-2.4,20.3-7.2,29.6C1256.9,700.8,1256.3,701.2,1255.6,701.2z M1237.8,694.3&#10;&#9;&#9;&#9;&#9;c5.7,0.2,11.4,1.1,16.9,2.8c3.8-7.7,5.8-16,6.1-24.6h-23V694.3z" transform="matrix(1, 0, 0, 1, 8.526512829121202e-14, 2.1316282072803006e-14)"/><path d="M1216.2,643.8c-0.2,0-0.4,0-0.6-0.1c-5.8-1.9-11.2-4.7-16.2-8.1c-0.5-0.3-0.7-0.8-0.8-1.4c0-0.6,0.2-1.1,0.6-1.5&#10;&#9;&#9;&#9;&#9;c9.9-9.6,22.9-14.9,36.6-14.9h0c0.8,0,1.5,0.5,1.8,1.3c0.2,0.8,0,1.6-0.7,2.1c-7.9,5.6-14.5,13-19,21.6&#10;&#9;&#9;&#9;&#9;C1217.5,643.4,1216.9,643.8,1216.2,643.8z M1203.4,633.8c3.8,2.4,7.7,4.4,11.9,5.9c3.7-6.7,8.7-12.8,14.5-17.8&#10;&#9;&#9;&#9;&#9;C1220.1,623,1210.9,627.2,1203.4,633.8z" transform="matrix(1, 0, 0, 1, 8.526512829121202e-14, 2.1316282072803006e-14)"/><path d="M1236.1,621.5c-0.8,0-1.8-0.5-2-1.3c-0.2-0.8,0-1.6,0.6-2.1c0.6-0.4,1.6-0.6,2.2-0.2c0.1,0,0.3,0.2,0.3,0.2&#10;&#9;&#9;&#9;&#9;c0.6,0.5,0.8,1.3,0.6,2.1C1237.5,621,1236.8,621.5,1236.1,621.5z" transform="matrix(1, 0, 0, 1, 8.526512829121202e-14, 2.1316282072803006e-14)"/><path d="M1235.9,647c-6.9,0-13.7-1.1-20.3-3.3c-0.5-0.2-0.9-0.6-1.1-1.1c-0.2-0.5-0.2-1.1,0.1-1.6c4.8-9.1,11.7-17.1,20.1-22.9&#10;&#9;&#9;&#9;&#9;c1.2-0.8,3.1,0.1,3.1,1.5v25.5C1237.8,646.1,1236.9,647,1235.9,647z M1218.9,640.8c4.9,1.5,10,2.3,15.1,2.4v-20&#10;&#9;&#9;&#9;&#9;C1227.9,628,1222.8,634,1218.9,640.8z" transform="matrix(1, 0, 0, 1, 8.526512829121202e-14, 2.1316282072803006e-14)"/><path d="M1235.9,647c-1,0-1.9-0.8-1.9-1.9v-25.5c0-1,0.8-1.9,1.9-1.9c0.4,0,0.9,0.1,1.2,0.3c8.4,5.9,15.4,13.8,20.1,23&#10;&#9;&#9;&#9;&#9;c0.2,0.5,0.3,1,0.1,1.6c-0.2,0.5-0.6,0.9-1.1,1.1C1249.6,645.9,1242.8,647,1235.9,647z M1237.8,623.2v20c5.1-0.2,10.2-1,15.1-2.4&#10;&#9;&#9;&#9;&#9;C1249.1,634,1243.9,628,1237.8,623.2z" transform="matrix(1, 0, 0, 1, 8.526512829121202e-14, 2.1316282072803006e-14)"/><path d="M1236.1,723.5c-0.8,0-1.5-0.5-1.8-1.3c-0.2-0.8,0-1.6,0.7-2.1c7.9-5.6,14.5-13,19-21.6c0.4-0.8,1.4-1.2,2.2-0.9&#10;&#9;&#9;&#9;&#9;c5.8,1.9,11.3,4.7,16.2,8.1c0.5,0.3,0.7,0.8,0.8,1.4c0,0.6-0.2,1.1-0.6,1.5C1262.8,718.1,1249.8,723.4,1236.1,723.5L1236.1,723.5&#10;&#9;&#9;&#9;&#9;z M1256.5,701.6c-3.7,6.7-8.7,12.8-14.5,17.8c9.8-1.2,19-5.3,26.5-11.9C1264.7,705.1,1260.7,703.1,1256.5,701.6z" transform="matrix(1, 0, 0, 1, 8.526512829121202e-14, 2.1316282072803006e-14)"/><path d="M1235.8,723.5C1235.8,723.5,1235.8,723.5,1235.8,723.5c-13.8,0-26.8-5.3-36.6-14.9c-0.4-0.4-0.6-0.9-0.6-1.5&#10;&#9;&#9;&#9;&#9;c0-0.6,0.3-1.1,0.8-1.4c5-3.5,10.5-6.2,16.2-8.1c0.9-0.3,1.8,0.1,2.2,0.9c4.5,8.6,11,16.1,19,21.6c0.7,0.5,0.9,1.3,0.7,2.1&#10;&#9;&#9;&#9;&#9;C1237.3,722.9,1236.6,723.5,1235.8,723.5z M1203.4,707.5c7.5,6.6,16.6,10.7,26.5,11.9c-5.9-5-10.8-11.1-14.5-17.8&#10;&#9;&#9;&#9;&#9;C1211.1,703.1,1207.2,705.1,1203.4,707.5z" transform="matrix(1, 0, 0, 1, 8.526512829121202e-14, 2.1316282072803006e-14)"/><path d="M1235.9,723.5c-0.4,0-0.8-0.1-1.1-0.4c-0.7-0.5-1-1.3-0.8-2.1c0.5-1.6,3.2-1.6,3.7-0.1c0.3,0.8,0.1,1.6-0.5,2.1&#10;&#9;&#9;&#9;&#9;C1236.8,723.4,1236.3,723.5,1235.9,723.5z" transform="matrix(1, 0, 0, 1, 8.526512829121202e-14, 2.1316282072803006e-14)"/><path d="M1235.9,723.5h-0.1c-0.4,0-0.8-0.1-1.1-0.3c-8.4-5.9-15.4-13.8-20.1-23c-0.3-0.5-0.3-1.1-0.1-1.6&#10;&#9;&#9;&#9;&#9;c0.2-0.5,0.6-0.9,1.1-1.1c6.6-2.2,13.4-3.3,20.3-3.3c1,0,1.9,0.8,1.9,1.9v25.5C1237.8,722.6,1236.9,723.5,1235.9,723.5z&#10;&#9;&#9;&#9;&#9; M1218.9,700.4c3.9,6.8,9,12.8,15.1,17.6v-20C1228.9,698.2,1223.9,699,1218.9,700.4z" transform="matrix(1, 0, 0, 1, 8.526512829121202e-14, 2.1316282072803006e-14)"/><path d="M1236.1,723.5h-0.1c-1,0-1.9-0.8-1.9-1.9v-25.5c0-1,0.8-1.9,1.9-1.9c6.9,0,13.7,1.1,20.3,3.3c0.5,0.2,0.9,0.6,1.1,1.1&#10;&#9;&#9;&#9;&#9;c0.2,0.5,0.2,1.1-0.1,1.6c-4.7,9.1-11.7,17-20.1,23C1236.8,723.3,1236.4,723.5,1236.1,723.5z M1237.8,698v20&#10;&#9;&#9;&#9;&#9;c6.1-4.8,11.3-10.8,15.1-17.6C1248,699,1242.9,698.2,1237.8,698z" transform="matrix(1, 0, 0, 1, 8.526512829121202e-14, 2.1316282072803006e-14)"/><path d="M1286.3,750h-101.4c-1,0-1.9-0.8-1.9-1.9c0-1,0.8-1.9,1.9-1.9h101.4c1,0,1.9,0.8,1.9,1.9&#10;&#9;&#9;&#9;C1288.1,749.2,1287.3,750,1286.3,750z" transform="matrix(1, 0, 0, 1, 5.684341886080802e-14, 1.4210854715202004e-14)"/><path d="M1236.1,777.7h-51.1c-1,0-1.9-0.8-1.9-1.9c0-1,0.8-1.9,1.9-1.9h51.1c1,0,1.9,0.8,1.9,1.9&#10;&#9;&#9;&#9;C1237.9,776.9,1237.1,777.7,1236.1,777.7z" transform="matrix(1, 0, 0, 1, 5.684341886080802e-14, 1.4210854715202004e-14)"/>
</svg>